<svg width="119" height="50" viewBox="0 0 119 50" fill="none" xmlns="http://www.w3.org/2000/svg">
<mask id="mask0_1_755" style="mask-type:luminance" maskUnits="userSpaceOnUse" x="0" y="1" width="119" height="33">
<path d="M118.868 1.45898H0V33.6909H118.868V1.45898Z" fill="white"/>
</mask>
<g mask="url(#mask0_1_755)">
<path fill-rule="evenodd" clip-rule="evenodd" d="M0 20.4369H4.93124V33.6915H7.56121V20.4369H12.5144V18.0718H0V20.4369ZM34.0284 23.4044C34.0284 20.013 31.7303 18.0718 27.7365 18.0718H21.3994V33.6915H24.0294V28.9831H27.734C27.9794 28.9831 28.2249 28.9831 28.4478 28.9606L31.3038 33.6915H34.2939L30.7935 28.4709C32.8681 27.6663 34.0284 25.9035 34.0284 23.4044ZM27.7365 26.618H24.0319V20.4369H27.7365C30.146 20.4369 31.5293 21.4187 31.5293 23.4714C31.5293 25.5904 30.146 26.618 27.7365 26.618ZM44.1596 33.694H46.7895V18.0718H44.1596V33.694ZM68.4819 29.2981L60.1143 18.0718H57.5256V33.6915H60.1587V22.4895L68.4819 33.6915H71.07V18.0718H68.4819V29.2981ZM95.014 18.0743H91.9119L84.4605 26.1521V18.0743H81.8265V33.6915H84.4592V29.7195L87.1143 26.7965L92.2491 33.6915H95.4175L88.9677 24.7432L95.014 18.0743ZM112.039 18.0743H109.341L102.445 33.6915H105.189L106.684 30.1654H114.561L116.056 33.6915H118.867L112.039 18.0743ZM107.666 27.8253L110.609 20.8859L113.552 27.8253H107.666Z" fill="white"/>
<path d="M6.36972 13.6081C9.72464 13.6081 12.4444 10.8883 12.4444 7.53342C12.4444 4.17846 9.72464 1.45874 6.36972 1.45874C3.01477 1.45874 0.295044 4.17846 0.295044 7.53342C0.295044 10.8883 3.01477 13.6081 6.36972 13.6081Z" fill="white"/>
<path d="M25.9574 13.6081C29.3124 13.6081 32.0321 10.8883 32.0321 7.53344C32.0321 4.17846 29.3124 1.45874 25.9574 1.45874C22.6025 1.45874 19.8828 4.17846 19.8828 7.53344C19.8828 10.8883 22.6025 13.6081 25.9574 13.6081Z" fill="white"/>
<path d="M45.4203 13.6081C48.7753 13.6081 51.495 10.8884 51.495 7.53341C51.495 4.17846 48.7753 1.45874 45.4203 1.45874C42.0654 1.45874 39.3457 4.17846 39.3457 7.53341C39.3457 10.8884 42.0654 13.6081 45.4203 13.6081Z" fill="white"/>
</g>
<path d="M6.00344 42.1038C6.15636 41.8362 6.38029 41.6178 6.6752 41.4485C6.97015 41.2792 7.30605 41.1945 7.68289 41.1945C8.08701 41.1945 8.45025 41.2901 8.77248 41.4813C9.09471 41.6724 9.34865 41.9428 9.53438 42.2923C9.72004 42.6364 9.8129 43.0378 9.8129 43.4966C9.8129 43.9499 9.72004 44.3541 9.53438 44.709C9.34865 45.064 9.09194 45.3399 8.76426 45.5364C8.44203 45.7331 8.08156 45.8314 7.68289 45.8314C7.29508 45.8314 6.95372 45.7467 6.65884 45.5774C6.36936 45.4081 6.1509 45.1924 6.00344 44.9302V45.7576H5.25793V39.6953H6.00344V42.1038ZM9.051 43.4966C9.051 43.1579 8.98272 42.863 8.84622 42.6118C8.70965 42.3605 8.52392 42.1694 8.2891 42.0383C8.05974 41.9073 7.80573 41.8417 7.5272 41.8417C7.25413 41.8417 7.00019 41.91 6.7653 42.0465C6.53594 42.1776 6.35025 42.3715 6.20825 42.6282C6.07171 42.8794 6.00344 43.1716 6.00344 43.5047C6.00344 43.8434 6.07171 44.141 6.20825 44.3978C6.35025 44.6489 6.53594 44.8428 6.7653 44.9794C7.00019 45.1104 7.25413 45.176 7.5272 45.176C7.80573 45.176 8.05974 45.1104 8.2891 44.9794C8.52392 44.8428 8.70965 44.6489 8.84622 44.3978C8.98272 44.141 9.051 43.8406 9.051 43.4966Z" fill="white"/>
<path d="M14.6612 41.2686L11.9577 47.8716H11.1876L12.0724 45.7088L10.2618 41.2686H11.0893L12.4984 44.9059L13.8911 41.2686H14.6612Z" fill="white"/>
<path d="M30.7493 44.0944L31.1212 44.3978C30.8397 44.7348 30.564 45.0032 30.2985 45.2031C30.033 45.3986 29.7792 45.5371 29.5444 45.6188C29.3066 45.6976 29.031 45.7399 28.7115 45.7399C28.1397 45.7399 27.6584 45.6261 27.2588 45.3927C26.8008 45.1243 26.4507 44.7771 26.2056 44.3423C25.9576 43.912 25.838 43.4057 25.838 42.8208C25.838 42.2358 25.9591 41.6843 26.1925 41.251C26.4302 40.8178 26.757 40.4735 27.1829 40.2226C27.6059 39.9745 28.0989 39.8506 28.659 39.8506C29.0748 39.8506 29.4335 39.9118 29.7398 40.046C30.0462 40.1729 30.3043 40.3728 30.5173 40.634C30.7303 40.8951 30.8849 41.1956 30.9855 41.5326C31.041 41.7325 31.0716 41.9863 31.0789 42.3H26.967C26.9568 42.4896 26.9495 42.6296 26.9495 42.723C26.9495 43.2117 27.0356 43.645 27.2047 44.0316C27.3769 44.4138 27.6 44.6954 27.883 44.8749C28.1616 45.0543 28.4825 45.1462 28.8399 45.1462C29.1433 45.1462 29.4321 45.0732 29.718 44.9332C29.9995 44.7888 30.3438 44.5131 30.7463 44.1031L30.7493 44.0929V44.0944ZM30.0054 41.7471C29.947 41.3896 29.8639 41.1241 29.7574 40.9549C29.6509 40.7828 29.4992 40.6486 29.3066 40.5493C29.1112 40.4502 28.8909 40.3976 28.6459 40.3976C28.4009 40.3976 28.1748 40.4458 27.9574 40.5493C27.7444 40.6486 27.568 40.7901 27.4236 40.9695C27.2821 41.149 27.1581 41.4072 27.056 41.7514H30.0054V41.7485V41.7471Z" fill="white"/>
<path d="M31.9786 40.8221V40.3334C32.3229 40.2925 32.581 40.2473 32.7488 40.1919C32.9209 40.1365 33.1645 40.0197 33.4883 39.8447H33.9084V40.949C34.4218 40.5187 34.8579 40.2269 35.2197 40.0752C35.5843 39.9235 35.949 39.8476 36.3209 39.8476C36.6375 39.8476 36.9204 39.8987 37.1641 40.0067C37.4091 40.1131 37.6075 40.2576 37.7592 40.4399C37.9108 40.6223 38.0144 40.8324 38.0655 41.0629C38.0961 41.2072 38.1136 41.4202 38.1136 41.7135V44.2709C38.1136 44.5772 38.134 44.7727 38.1792 44.8588C38.2245 44.9448 38.293 45.0105 38.3922 45.0484C38.4885 45.0863 38.7262 45.1068 39.1084 45.1068V45.5955H36.1138V45.1068H36.2757C36.5543 45.1068 36.744 45.082 36.8475 45.0309C36.9467 44.9799 37.0196 44.9069 37.0648 44.8077C37.11 44.7114 37.1305 44.5145 37.1305 44.2154V42.0753C37.1305 41.6318 37.0955 41.3284 37.024 41.1562C36.9511 40.9841 36.8314 40.8469 36.6593 40.7404C36.4873 40.634 36.267 40.5814 36.0059 40.5814C35.6923 40.5814 35.3554 40.6602 35.0009 40.8221C34.6464 40.9841 34.2993 41.2218 33.9682 41.5341V44.2154C33.9682 44.5188 33.9886 44.7173 34.0339 44.8179C34.0791 44.9171 34.1549 44.993 34.2512 45.0455C34.3197 45.0834 34.5065 45.1039 34.8127 45.1039H34.9819V45.5926H31.9874V45.1039H32.1318C32.4206 45.1039 32.6131 45.079 32.7196 45.0309C32.8261 44.9828 32.899 44.8967 32.9399 44.7727C32.9646 44.7114 32.9748 44.497 32.9748 44.1323V40.8178H31.9874L31.9801 40.8207L31.9786 40.8221Z" fill="white"/>
<path d="M44.0172 42.23V41.5939C44.0172 41.1635 43.8961 40.8571 43.6598 40.6719C43.4191 40.4866 43.0822 40.3962 42.6417 40.3962C42.4243 40.3962 42.2362 40.4209 42.0699 40.472C41.908 40.5275 41.7767 40.596 41.6775 40.6894C41.5784 40.7827 41.5054 40.8849 41.4602 41.003C41.4398 41.0439 41.3945 41.2102 41.3231 41.499C41.2341 41.8462 41.0547 42.0227 40.7834 42.0227C40.6288 42.0227 40.5048 41.9717 40.4085 41.8711C40.3152 41.7675 40.267 41.6303 40.267 41.4553C40.267 41.2 40.3633 40.9491 40.5485 40.701C40.7382 40.4531 41.0299 40.2503 41.4193 40.0883C41.8088 39.9264 42.2697 39.8477 42.7992 39.8477C43.2951 39.8477 43.7211 39.9235 44.0726 40.0752C44.4241 40.2269 44.6852 40.4472 44.8501 40.7361C44.9667 40.9316 45.0251 41.2934 45.0251 41.8171V44.0579C45.0251 44.3744 45.0353 44.5816 45.0557 44.6808C45.0965 44.8456 45.1724 44.974 45.2789 45.0558C45.3854 45.1389 45.5239 45.1797 45.6946 45.1797C45.8653 45.1797 46.0869 45.1389 46.3349 45.0528V45.559C46.0155 45.6524 45.7252 45.7005 45.4714 45.7005C45.1958 45.7005 44.9624 45.6597 44.7757 45.5838C44.586 45.508 44.4314 45.3941 44.3147 45.2425C44.1937 45.0951 44.1149 44.9157 44.0843 44.7085C43.616 45.0732 43.1959 45.3286 42.8211 45.4759C42.4419 45.6232 42.064 45.6991 41.6819 45.6991C41.1451 45.6991 40.7119 45.5546 40.3779 45.2614C40.0439 44.9726 39.879 44.6312 39.879 44.2358C39.879 43.998 39.9403 43.7749 40.0643 43.5619C40.1854 43.3489 40.3706 43.1592 40.6215 42.9973C40.8724 42.8354 41.2648 42.6909 41.7986 42.5669C42.3354 42.4429 43.0749 42.3291 44.0245 42.23L44.0142 42.2329L44.0172 42.23ZM44.0172 42.7361C43.1187 42.8675 42.5615 42.9593 42.3485 43.0075C41.9284 43.1038 41.6221 43.2103 41.4398 43.327C41.2603 43.4437 41.1261 43.5677 41.0503 43.7019C40.9745 43.8361 40.9365 43.9806 40.9365 44.1322C40.9365 44.284 40.9774 44.4313 41.0634 44.5699C41.1495 44.7114 41.2735 44.8209 41.431 44.904C41.593 44.9871 41.7607 45.028 41.9371 45.028C42.1881 45.028 42.4739 44.9697 42.7934 44.8485C43.1099 44.7275 43.5198 44.494 44.0157 44.1468V42.7361H44.0172Z" fill="white"/>
<path d="M51.247 40.4428C51.422 40.24 51.6015 40.0884 51.7809 39.9891C51.9602 39.8928 52.1251 39.8447 52.2768 39.8447C52.4139 39.8447 52.5321 39.8855 52.6283 39.9687C52.7246 40.0519 52.7727 40.154 52.7727 40.2722C52.7727 40.3961 52.7319 40.5027 52.6458 40.5887C52.5597 40.6719 52.4504 40.7157 52.3191 40.7157C52.2637 40.7157 52.1878 40.7054 52.0959 40.685C51.9894 40.6573 51.8961 40.6442 51.8202 40.6442C51.724 40.6442 51.6248 40.6894 51.5168 40.7784C51.7575 41.0716 51.8786 41.4115 51.8786 41.8039C51.8786 42.3379 51.6554 42.8018 51.2047 43.1942C50.754 43.5867 50.1866 43.7821 49.501 43.7821C49.1189 43.7821 48.7411 43.7034 48.3545 43.5443C48.0993 43.7267 47.9519 43.8376 47.9213 43.8814C47.8659 43.947 47.8382 44.0156 47.8382 44.0914C47.8382 44.2052 47.8965 44.2985 48.0132 44.37C48.1605 44.4663 48.4508 44.5495 48.884 44.6151L50.5673 44.866C50.9392 44.9244 51.3141 45.0207 51.6889 45.1549C52.0682 45.292 52.3395 45.4686 52.5072 45.6845C52.6765 45.9019 52.7581 46.1601 52.7581 46.4664C52.7581 46.9755 52.5204 47.3855 52.0492 47.6918C51.4468 48.0843 50.5556 48.2798 49.3756 48.2798C48.7556 48.2798 48.2539 48.2112 47.8645 48.0799C47.4793 47.9486 47.176 47.7633 46.963 47.5226C46.8084 47.3476 46.7325 47.1681 46.7325 46.9828C46.7325 46.7422 46.8113 46.5073 46.9703 46.2811C47.1293 46.0536 47.4896 45.7239 48.0614 45.3037C47.6938 45.2104 47.4312 45.1009 47.2693 44.9769C47.0665 44.815 46.9659 44.6356 46.9659 44.4372C46.9659 44.338 46.9864 44.2446 47.0213 44.1556C47.0592 44.0695 47.1176 43.9805 47.2007 43.8945C47.2839 43.8084 47.4385 43.6844 47.6587 43.5297C47.7959 43.4335 47.8965 43.3605 47.9549 43.3167C47.6733 43.114 47.459 42.8864 47.3145 42.6384C47.1701 42.3875 47.1016 42.1147 47.1016 41.8156C47.1016 41.324 47.2912 40.8936 47.6733 40.5245C48.1343 40.0767 48.7571 39.8505 49.5389 39.8505C49.8905 39.8505 50.1924 39.8958 50.4506 39.9775C50.7117 40.0635 50.9771 40.2226 51.2528 40.4457H51.2499L51.247 40.4428ZM49.482 40.3845C49.0999 40.3845 48.7805 40.5216 48.5179 40.7973C48.2524 41.073 48.1226 41.413 48.1226 41.8229C48.1226 42.0913 48.1839 42.3393 48.302 42.5567C48.4231 42.777 48.5908 42.9491 48.8081 43.0761C49.0255 43.2 49.256 43.2657 49.4966 43.2657C49.7373 43.2657 49.9678 43.2044 50.1851 43.0761C50.4025 42.9491 50.5702 42.7726 50.6912 42.5567C50.808 42.3393 50.8663 42.0957 50.8663 41.8229C50.8663 41.3955 50.7394 41.0483 50.4812 40.7842C50.223 40.5187 49.8934 40.3845 49.4835 40.3845H49.482ZM48.5558 45.4335C48.1839 45.7501 47.9359 46.0083 47.8119 46.2082C47.6909 46.4037 47.6296 46.5933 47.6296 46.7801C47.6296 46.9347 47.6909 47.0864 47.8119 47.2309C47.9359 47.3753 48.1416 47.4964 48.4377 47.5883C48.7338 47.6817 49.1014 47.7254 49.5491 47.7254C50.0757 47.7254 50.5294 47.6671 50.9086 47.5533C51.2878 47.4395 51.5591 47.2921 51.7211 47.1156C51.8421 46.9741 51.9034 46.8093 51.9034 46.6196C51.9034 46.4577 51.8553 46.3162 51.756 46.2067C51.6569 46.093 51.4702 45.9967 51.1989 45.9135C50.9232 45.8304 50.6723 45.7691 50.4316 45.7282L48.5602 45.4321H48.5573L48.5558 45.4335Z" fill="white"/>
<path d="M56.1245 39.8443C56.6963 39.8443 57.1879 39.9609 57.6036 40.1988C58.0193 40.4366 58.3475 40.7809 58.5881 41.2345C58.8288 41.6883 58.9499 42.2047 58.9499 42.7867C58.9499 43.3688 58.8259 43.8882 58.5824 44.339C58.3343 44.7927 58.0003 45.137 57.5774 45.3777C57.1543 45.6155 56.6452 45.7351 56.056 45.7351C55.1167 45.7351 54.415 45.4418 53.9424 44.8569C53.4713 44.2719 53.2365 43.5833 53.2365 42.7911C53.2365 42.2134 53.3605 41.6999 53.604 41.252C53.8476 40.8042 54.1889 40.457 54.6295 40.2134C55.0699 39.9653 55.5688 39.8457 56.126 39.8457L56.1231 39.8428L56.1245 39.8443ZM56.0793 40.4088C55.6359 40.4088 55.2639 40.5839 54.9576 40.9326C54.5725 41.3658 54.3757 41.999 54.3757 42.8291C54.3757 43.6592 54.5405 44.2369 54.8716 44.657C55.1706 45.029 55.5775 45.2187 56.0895 45.2187C56.4192 45.2187 56.7123 45.1326 56.9706 44.9575C57.2287 44.7825 57.4344 44.5038 57.5963 44.1216C57.7553 43.7394 57.8341 43.2915 57.8341 42.7765C57.8341 42.2616 57.748 41.8225 57.5788 41.4242C57.4446 41.1047 57.2492 40.8596 56.9793 40.6802C56.7139 40.5051 56.4148 40.4147 56.0808 40.4147L56.0779 40.4118L56.0793 40.4088Z" fill="white"/>
<path d="M24.3181 45.6612C24.5311 45.6612 24.7105 45.737 24.8578 45.8844C25.0052 46.0317 25.0781 46.2141 25.0781 46.4285C25.0781 46.643 25.0023 46.818 24.8505 46.9624C24.6988 47.1098 24.5209 47.1857 24.3138 47.1857C24.1066 47.1857 23.9214 47.1098 23.7741 46.9581C23.6267 46.8063 23.5509 46.6284 23.5509 46.4183C23.5509 46.2082 23.6239 46.0331 23.7711 45.8844C23.9185 45.737 24.1008 45.6612 24.3152 45.6568L24.3181 45.6597V45.6612ZM24.3181 41.7543C24.5311 41.7543 24.7105 41.8302 24.8578 41.9776C25.0052 42.1249 25.0781 42.3072 25.0781 42.5217C25.0781 42.7362 25.0023 42.9112 24.8505 43.0557C24.6988 43.203 24.5209 43.2789 24.3138 43.2789C24.1066 43.2789 23.9214 43.203 23.7741 43.0513C23.6267 42.8996 23.5509 42.7216 23.5509 42.5115C23.5509 42.3015 23.6239 42.1264 23.7711 41.9776C23.9185 41.8302 24.1008 41.7543 24.3152 41.75L24.3181 41.7529V41.7543Z" fill="white"/>
<path d="M19.3045 48.0386V47.525C20.1505 47.2639 20.8055 46.854 21.2722 46.2996C21.7331 45.7453 21.968 45.1573 21.968 44.5373C21.968 44.39 21.9301 44.2689 21.8586 44.1653C21.8002 44.0968 21.7419 44.0618 21.6865 44.0618C21.5931 44.0618 21.3977 44.1405 21.0943 44.2951C20.947 44.3638 20.7909 44.3987 20.6261 44.3987C20.2235 44.3987 19.9041 44.2894 19.6619 44.0618C19.4285 43.8342 19.3045 43.5249 19.3045 43.1325C19.3045 42.7401 19.4591 42.4264 19.7654 42.155C20.0718 41.8793 20.4495 41.7451 20.8945 41.7451C21.4385 41.7451 21.9198 41.9683 22.3429 42.4162C22.7659 42.8597 22.9788 43.4519 22.9788 44.1858C22.9788 44.9838 22.6827 45.7278 22.0978 46.4119C21.51 47.1006 20.5808 47.6374 19.3031 48.0371L19.3045 48.0386Z" fill="white"/>
</svg>
